{"title":"Big.Ass.Spider!.x264.AAC-WFDNexus","uid":9085327,"size":654834388,"categoryP":"video","categoryS":"movies","magnet":"?xt=urn:btih:38e1b4fd0195b888bf76b1ca3a00c7ef3a4284b8&amp;dn=Big.Ass.Spider%21.x264.AAC-WFDNexus&amp;tr=udp%3A%2F%2Ftracker.openbittorrent.com%3A80&amp;tr=udp%3A%2F%2Fopen.demonii.com%3A1337&amp;tr=udp%3A%2F%2Ftracker.coppersurfer.tk%3A6969&amp;tr=udp%3A%2F%2Fexodus.desync.com%3A6969","seeders":3,"leechers":0,"uploader":"WFD_Nexus","files":-1,"time":1382481604,"description":"General\nFormat                   : MPEG-4\nDuration                 : 1h 20mn\nOverall bit rate mode    : Variable\nOverall bit rate         : 1 084 Kbps\nIMDb                     : http://www.imdb.com/title/tt1830713/\n\nVideo\nDuration                 : 1h 20mn\nBit rate mode            : Variable\nBit rate                 : 793 Kbps\nWidth                    : 720 pixels\nHeight                   : 384 pixels\nDisplay aspect ratio     : 1.85:1\nFrame rate mode          : Variable\nFrame rate               : 23.976 fps\nMinimum frame rate       : 11.987 fps\nMaximum frame rate       : 90 000.000 fps\nStream size              : 454 MiB (73%)\nWriting library          : x264 core 130 r2273 b3065e6\n \n\nAudio\nFormat                   : AAC\nFormat/Info              : Advanced Audio Codec\nDuration                 : 1h 20mn\nBit rate mode            : Variable\nBit rate                 : 288 Kbps\nMaximum bit rate         : 375 Kbps\nChannel count            : 2 channels\nSampling rate            : 48.0 KHz\nCompression mode         : Lossy\nDelay relative to video  : 83ms\nStream size              : 167 MiB (27%)\n\nScreens: &lt;a href=&quot;\nhttp://bayimg.com/dAbEAaaFD&quot; rel=&quot;nofollow&quot; target=&quot;_NEW&quot;&gt;\nhttp://bayimg.com/dAbEAaaFD&lt;/a&gt; &lt;a href=&quot;\nhttp://bayimg.com/DABedaAFD&quot; rel=&quot;nofollow&quot; target=&quot;_NEW&quot;&gt;\nhttp://bayimg.com/DABedaAFD&lt;/a&gt;","torrent":{"xt":"urn:btih:38e1b4fd0195b888bf76b1ca3a00c7ef3a4284b8","amp;dn":"Big.Ass.Spider%21.x264.AAC-WFDNexus","amp;tr":["udp%3A%2F%2Ftracker.openbittorrent.com%3A80","udp%3A%2F%2Fopen.demonii.com%3A1337","udp%3A%2F%2Ftracker.coppersurfer.tk%3A6969","udp%3A%2F%2Fexodus.desync.com%3A6969"],"infoHash":"38e1b4fd0195b888bf76b1ca3a00c7ef3a4284b8","infoHashBuffer":{"type":"Buffer","data":[56,225,180,253,1,149,184,136,191,118,177,202,58,0,199,239,58,66,132,184]},"announce":[],"urlList":[]}}